<svg xmlns="http://www.w3.org/2000/svg" version="1.1" xmlns:xlink="http://www.w3.org/1999/xlink" xmlns:svgjs="http://svgjs.dev/svgjs" width="1000" height="1000" viewBox="0 0 1000 1000"><rect width="1000" height="1000" fill="#ffffff"></rect><g transform="matrix(0.7,0,0,0.7,149.84897959183667,150.19913061224486)"><svg viewBox="0 0 343 343" data-background-color="#ffffff" preserveAspectRatio="xMidYMid meet" height="999" width="1000" xmlns="http://www.w3.org/2000/svg" xmlns:xlink="http://www.w3.org/1999/xlink"><g id="tight-bounds" transform="matrix(1,0,0,1,0.0740000000000407,0.07400000000001228)"><svg viewBox="0 0 342.85155851775386 342.85155851775386" height="342.85155851775386" width="342.85155851775386"><g><svg></svg></g><g><svg viewBox="0 0 342.85155851775386 342.85155851775386" height="342.85155851775386" width="342.85155851775386"><g><path d="M0 171.426c0-94.676 76.75-171.426 171.426-171.426 94.676 0 171.426 76.75 171.426 171.426 0 94.676-76.75 171.426-171.426 171.426-94.676 0-171.426-76.75-171.426-171.426zM171.426 337.426c91.679 0 166-74.321 166-166 0-91.679-74.321-166-166-166-91.679 0-166 74.321-166 166 0 91.679 74.321 166 166 166z" data-fill-palette-color="tertiary" fill="#ed2647" stroke="transparent"></path><ellipse rx="164.56874808852186" ry="164.56874808852186" cx="171.42577925887693" cy="171.42577925887693" fill="#ed2647" stroke="transparent" stroke-width="0" fill-opacity="1" data-fill-palette-color="tertiary"></ellipse></g><g transform="matrix(1,0,0,1,64.84655864529837,129.85352158910644)"><svg viewBox="0 0 213.1584412271571 83.14451533954099" height="83.14451533954099" width="213.1584412271571"><g><svg viewBox="0 0 213.1584412271571 83.14451533954099" height="83.14451533954099" width="213.1584412271571"><g><svg viewBox="0 0 357.2688474159329 139.35617559080578" height="83.14451533954099" width="213.1584412271571"><g transform="matrix(1,0,0,1,144.11040618877578,19.259789824778515)"><svg viewBox="0 0 213.1584412271571 100.83659594124875" height="100.83659594124875" width="213.1584412271571"><g id="textblocktransform"><svg viewBox="0 0 213.1584412271571 100.83659594124875" height="100.83659594124875" width="213.1584412271571" id="textblock"><g><svg viewBox="0 0 213.1584412271571 100.83659594124875" height="100.83659594124875" width="213.1584412271571"><g transform="matrix(1,0,0,1,0,0)"><svg width="213.1584412271571" viewBox="-1.2000000476837158 -38.75 109.48999786376953 51.79999923706055" height="100.83659594124875" data-palette-color="#ffffff"><path d="M6.05-25.9Q5.05-26.25 4.53-26.98 4-27.7 4-28.7L4-28.7Q4-30.15 5.95-31L5.95-31Q13.1-32.45 20.35-33.05L20.35-33.05Q22.3-32.2 22.3-30.75L22.3-30.75Q22.3-29.85 21.4-29 20.5-28.15 19.35-27.8L19.35-27.8 16.6-27.45Q15.75-23.7 12.7-11.3L12.7-11.3 11.3-5.7 15.15-6.1Q17.1-5.25 17.1-3.8L17.1-3.8Q17.1-2.9 16.2-2.05 15.3-1.2 14.15-0.85L14.15-0.85 12.15-0.6Q4.8 0.2 0.85 1.05L0.85 1.05Q-0.15 0.7-0.68-0.03-1.2-0.75-1.2-1.75L-1.2-1.75Q-1.2-3.2 0.75-4.05L0.75-4.05Q3.25-4.55 4.55-4.75L4.55-4.75 10.05-26.6Q8-26.3 6.05-25.9L6.05-25.9ZM34.95-35.85L32.85-27.2Q27.2-3.45 26.2-0.05L26.2-0.05Q26.1 0.25 25.17 0.73 24.25 1.2 23.9 1.2L23.9 1.2Q22.5 1.2 21.2 0.5 19.9-0.2 19.8-1.75L19.8-1.75Q19.85-1.85 20.3-2.8 20.75-3.75 21.2-5.5L21.2-5.5Q22.35-9.8 23.82-15.7 25.3-21.6 25.8-23.6L25.8-23.6 28.15-33.15Q28.1-33.55 28.1-37.3L28.1-37.3Q28.25-37.95 29.22-38.35 30.2-38.75 31-38.75L31-38.75Q32.25-38.75 33.57-37.9 34.9-37.05 34.95-35.85L34.95-35.85ZM49.05-2.1Q47.34-0.5 45.75 0.28 44.15 1.05 42.15 1.05L42.15 1.05Q38.84 1.05 37.07-1 35.3-3.05 35.3-6.45L35.3-6.45Q35.3-7.45 35.59-8.65L35.59-8.65 38.95-21.7Q39.25-22.8 40.02-23.33 40.8-23.85 42.55-23.85L42.55-23.85Q45.15-23.85 45.15-22.4L45.15-22.4Q45.15-21.8 44.8-20.5L44.8-20.5 41.45-7.1Q41.3-6.5 41.3-5.9L41.3-5.9Q41.3-4.85 41.84-4.2 42.4-3.55 43.59-3.55L43.59-3.55Q45.15-3.55 46.95-4.45 48.75-5.35 50-6.65L50-6.65 50.95-10.6Q51.9-14.6 53.15-19.25L53.15-19.25Q53.7-21.25 54.57-22.53 55.45-23.8 57.34-23.8L57.34-23.8Q60-23.8 60-22.2L60-22.2Q60-21.95 59.87-21.58 59.75-21.2 59.7-20.95L59.7-20.95 58.05-14.1Q55.45-3.2 54.65-0.15L54.65-0.15Q53.34 4.85 51.7 7.7 50.05 10.55 47.57 11.8 45.09 13.05 41.25 13.05L41.25 13.05Q38.8 13.05 37.22 12.35 35.65 11.65 34.92 10.65 34.2 9.65 34.2 8.8L34.2 8.8Q34.2 6.35 36.9 6.35L36.9 6.35Q37.65 6.35 38.12 6.65 38.59 6.95 39.09 7.5L39.09 7.5Q39.84 8.2 40.47 8.55 41.09 8.9 42.2 8.9L42.2 8.9Q43.05 8.9 44.09 8.2 45.15 7.5 46.15 6 47.15 4.5 47.8 2.25L47.8 2.25 49.05-2.1ZM80.09-2.6Q80.19-1.3 80.44-0.25L80.44-0.25Q80.34 0.05 79.57 0.35 78.79 0.65 78.24 0.65L78.24 0.65Q76.44 0.65 75.67 0.13 74.89-0.4 74.89-1.45L74.89-1.45Q74.89-2.45 75.09-3.45L75.09-3.45Q73.99-1.95 71.87-0.98 69.74 0 68.44 0L68.44 0Q65.09 0 62.87-1.95 60.64-3.9 60.64-8.2L60.64-8.2Q60.64-12.25 62.57-15.83 64.49-19.4 67.89-21.58 71.29-23.75 75.44-23.75L75.44-23.75Q76.24-23.75 77.54-23.33 78.84-22.9 80.17-21.88 81.49-20.85 82.39-19.25L82.39-19.25Q82.79-19.25 83.34-18.85 83.89-18.45 83.89-18.05L83.89-18.05Q83.89-17.6 83.74-17.15L83.74-17.15 80.09-2.6ZM77.84-16.6Q77.54-17.7 76.67-18.45 75.79-19.2 75.09-19.2L75.09-19.2Q72.79-19.2 70.77-17.57 68.74-15.95 67.49-13.55 66.24-11.15 66.24-9L66.24-9Q66.24-6.9 66.74-5.55 67.24-4.2 68.69-4.2L68.69-4.2Q69.94-4.2 71.57-4.95 73.19-5.7 74.47-6.98 75.74-8.25 76.14-9.65L76.14-9.65 77.84-16.6ZM102.59-19.35Q101.99-19.65 101.09-19.65L101.09-19.65Q98.84-19.65 96.59-18.75 94.34-17.85 94.34-16.45L94.34-16.45Q94.34-15.45 95.24-14.85 96.14-14.25 98.09-13.5L98.09-13.5Q100.19-12.65 101.49-11.9 102.79-11.15 103.77-9.73 104.74-8.3 104.74-6.1L104.74-6.1Q104.74-2.5 101.77-0.58 98.79 1.35 93.79 1.35L93.79 1.35Q91.34 1.35 89.24 0.6 87.14-0.15 85.92-1.33 84.69-2.5 84.59-3.65L84.59-3.65Q84.59-4.85 85.64-5.63 86.69-6.4 88.59-6.65L88.59-6.65Q88.64-5.65 89.64-4.78 90.64-3.9 92.02-3.38 93.39-2.85 94.39-2.85L94.39-2.85Q96.09-2.85 97.49-3.78 98.89-4.7 98.89-5.95L98.89-5.95Q98.89-8.25 94.44-9.6L94.44-9.6Q91.59-10.45 90.06-12.3 88.54-14.15 88.54-16.2L88.54-16.2Q88.54-20.25 92.22-22.03 95.89-23.8 101.59-23.8L101.59-23.8Q104.79-23.8 106.54-23.05 108.29-22.3 108.29-20.45L108.29-20.45Q108.29-19.2 107.37-18.25 106.44-17.3 104.74-17.3L104.74-17.3Q103.24-17.3 102.81-17.53 102.39-17.75 102.34-18.3L102.34-18.3Q102.34-18.8 102.59-19.35L102.59-19.35Z" opacity="1" transform="matrix(1,0,0,1,0,0)" fill="#ffffff" class="wordmark-text-0" data-fill-palette-color="quaternary" id="text-0"></path></svg></g></svg></g></svg></g></svg></g><g><svg viewBox="0 0 120.30530596534953 139.35617559080578" height="139.35617559080578" width="120.30530596534953"><g><svg xmlns="http://www.w3.org/2000/svg" xmlns:xlink="http://www.w3.org/1999/xlink" version="1.1" x="0" y="0" viewBox="9.63800048828125 3.246999979019165 80.7239990234375 93.50699615478516" enable-background="new 0 0 100 100" xml:space="preserve" height="139.35617559080578" width="120.30530596534953" class="icon-icon-0" data-fill-palette-color="quaternary" id="icon-0"><g fill="#ffffff" data-fill-palette-color="quaternary"><g fill="#ffffff" data-fill-palette-color="quaternary"><polygon points="36.703,11.011 9.638,26.636 9.638,38.757 36.703,23.131 63.767,38.757 63.767,26.636   " fill="#ffffff" data-fill-palette-color="quaternary"></polygon></g><g fill="#ffffff" data-fill-palette-color="quaternary"><polygon points="63.298,89.092 36.233,73.467 36.233,61.348 63.298,76.973 90.362,61.348 90.362,73.467   " fill="#ffffff" data-fill-palette-color="quaternary"></polygon></g><g fill="#ffffff" data-fill-palette-color="quaternary"><polygon points="9.638,42.012 36.703,26.386 47.198,32.446 20.134,48.072 20.134,79.324 9.638,73.264   " fill="#ffffff" data-fill-palette-color="quaternary"></polygon></g><g fill="#ffffff" data-fill-palette-color="quaternary"><polygon points="77.083,18.872 50.018,3.247 39.522,9.307 66.586,24.932 66.586,56.184 77.083,50.124   " fill="#ffffff" data-fill-palette-color="quaternary"></polygon></g><g fill="#ffffff" data-fill-palette-color="quaternary"><polygon points="23.01,81.127 23.011,49.876 33.507,43.816 33.507,75.068 60.571,90.693 50.075,96.754   " fill="#ffffff" data-fill-palette-color="quaternary"></polygon></g><g fill="#ffffff" data-fill-palette-color="quaternary"><polygon points="90.362,58.092 90.362,26.84 79.866,20.78 79.866,52.031 52.802,67.658 63.298,73.719   " fill="#ffffff" data-fill-palette-color="quaternary"></polygon></g></g></svg></g></svg></g></svg></g></svg></g></svg></g></svg></g><defs></defs></svg><rect width="342.85155851775386" height="342.85155851775386" fill="none" stroke="none" visibility="hidden"></rect></g></svg></g></svg>